<svg width="135" height="17" viewBox="0 0 135 17" fill="none" xmlns="http://www.w3.org/2000/svg">
<path d="M125.055 4.11932H127.33L129.734 9.98295H129.836L132.239 4.11932H134.515V12.8466H132.725V7.16619H132.653L130.394 12.804H129.175L126.917 7.14488H126.844V12.8466H125.055V4.11932Z" fill="#080707"/>
<path d="M123.688 8.48295C123.688 9.43466 123.507 10.2443 123.147 10.9119C122.789 11.5795 122.3 12.0895 121.681 12.4418C121.064 12.7912 120.371 12.9659 119.601 12.9659C118.826 12.9659 118.13 12.7898 117.513 12.4375C116.897 12.0852 116.409 11.5753 116.051 10.9077C115.694 10.2401 115.515 9.43182 115.515 8.48295C115.515 7.53125 115.694 6.72159 116.051 6.05398C116.409 5.38636 116.897 4.87784 117.513 4.52841C118.13 4.17614 118.826 4 119.601 4C120.371 4 121.064 4.17614 121.681 4.52841C122.3 4.87784 122.789 5.38636 123.147 6.05398C123.507 6.72159 123.688 7.53125 123.688 8.48295ZM121.817 8.48295C121.817 7.86648 121.725 7.34659 121.54 6.9233C121.358 6.5 121.101 6.17898 120.769 5.96023C120.436 5.74148 120.047 5.6321 119.601 5.6321C119.155 5.6321 118.766 5.74148 118.434 5.96023C118.101 6.17898 117.843 6.5 117.658 6.9233C117.476 7.34659 117.385 7.86648 117.385 8.48295C117.385 9.09943 117.476 9.61932 117.658 10.0426C117.843 10.4659 118.101 10.7869 118.434 11.0057C118.766 11.2244 119.155 11.3338 119.601 11.3338C120.047 11.3338 120.436 11.2244 120.769 11.0057C121.101 10.7869 121.358 10.4659 121.54 10.0426C121.725 9.61932 121.817 9.09943 121.817 8.48295Z" fill="#080707"/>
<path d="M110.031 12.8466H106.938V4.11932H110.057C110.935 4.11932 111.69 4.29403 112.324 4.64346C112.957 4.99005 113.445 5.48863 113.786 6.1392C114.129 6.78977 114.301 7.56818 114.301 8.47443C114.301 9.38352 114.129 10.1648 113.786 10.8182C113.445 11.4716 112.955 11.973 112.315 12.3224C111.679 12.6719 110.918 12.8466 110.031 12.8466ZM108.783 11.2656H109.955C110.5 11.2656 110.959 11.169 111.331 10.9759C111.706 10.7798 111.987 10.4773 112.175 10.0682C112.365 9.65625 112.46 9.125 112.46 8.47443C112.46 7.82954 112.365 7.30255 112.175 6.89346C111.987 6.48437 111.707 6.18324 111.335 5.99005C110.963 5.79687 110.504 5.70028 109.959 5.70028H108.783V11.2656Z" fill="#080707"/>
<path d="M103.809 6.62926C103.775 6.28551 103.628 6.01847 103.37 5.82813C103.111 5.63778 102.76 5.54261 102.317 5.54261C102.016 5.54261 101.762 5.58523 101.554 5.67045C101.347 5.75284 101.188 5.8679 101.077 6.01563C100.969 6.16335 100.915 6.33097 100.915 6.51847C100.909 6.67472 100.942 6.81108 101.013 6.92756C101.087 7.04403 101.188 7.14489 101.316 7.23011C101.444 7.3125 101.591 7.38494 101.759 7.44744C101.926 7.5071 102.105 7.55824 102.296 7.60085L103.08 7.78835C103.461 7.87358 103.81 7.98722 104.128 8.12926C104.446 8.27131 104.722 8.44602 104.955 8.65341C105.188 8.8608 105.368 9.10511 105.496 9.38636C105.627 9.66761 105.694 9.99006 105.696 10.3537C105.694 10.8878 105.557 11.3509 105.287 11.7429C105.02 12.1321 104.634 12.4347 104.128 12.6506C103.625 12.8636 103.019 12.9702 102.309 12.9702C101.604 12.9702 100.99 12.8622 100.468 12.6463C99.9478 12.4304 99.5415 12.1108 99.2489 11.6875C98.9592 11.2614 98.8072 10.7344 98.793 10.1065H100.578C100.598 10.3991 100.682 10.6435 100.83 10.8395C100.98 11.0327 101.181 11.179 101.431 11.2784C101.684 11.375 101.969 11.4233 102.287 11.4233C102.6 11.4233 102.871 11.3778 103.101 11.2869C103.334 11.196 103.515 11.0696 103.642 10.9077C103.77 10.7457 103.834 10.5597 103.834 10.3494C103.834 10.1534 103.776 9.98864 103.659 9.85511C103.546 9.72159 103.378 9.60795 103.157 9.5142C102.938 9.42045 102.669 9.33523 102.351 9.25852L101.401 9.01989C100.665 8.84091 100.084 8.56108 99.658 8.1804C99.2319 7.79972 99.0202 7.28693 99.0231 6.64205C99.0202 6.11364 99.1609 5.65199 99.445 5.2571C99.7319 4.86222 100.125 4.55398 100.625 4.33239C101.125 4.1108 101.694 4 102.33 4C102.978 4 103.543 4.1108 104.026 4.33239C104.512 4.55398 104.89 4.86222 105.159 5.2571C105.429 5.65199 105.569 6.10937 105.577 6.62926H103.809Z" fill="#080707"/>
<path d="M97.5561 4.11932V12.8466H95.7109V4.11932H97.5561Z" fill="#080707"/>
<path d="M85.2418 12.8466L82.7447 4.11932H84.7603L86.2049 10.1832H86.2774L87.8711 4.11932H89.597L91.1865 10.196H91.2632L92.7078 4.11932H94.7234L92.2262 12.8466H90.4279L88.766 7.14062H88.6978L87.0401 12.8466H85.2418Z" fill="#080707"/>
<path d="M71.2933 4.11932H73.3601L75.3502 7.87784H75.4354L77.4254 4.11932H79.4922L76.309 9.76136V12.8466H74.4766V9.76136L71.2933 4.11932Z" fill="#080707"/>
<path d="M66.1094 12.8466V4.11932H67.9545V11.3253H71.696V12.8466H66.1094Z" fill="#080707"/>
<path d="M58.2344 12.8466V4.11932H61.6776C62.3366 4.11932 62.8991 4.23721 63.3651 4.47301C63.8338 4.70596 64.1903 5.03693 64.4347 5.46591C64.6818 5.89204 64.8054 6.39346 64.8054 6.97017C64.8054 7.54971 64.6804 8.04829 64.4304 8.46591C64.1804 8.88068 63.8182 9.19886 63.3438 9.42045C62.8722 9.64204 62.3011 9.75284 61.6307 9.75284H59.3253V8.26988H61.3324C61.6847 8.26988 61.9773 8.22159 62.2102 8.125C62.4432 8.02841 62.6165 7.88352 62.7301 7.69034C62.8466 7.49716 62.9048 7.2571 62.9048 6.97017C62.9048 6.6804 62.8466 6.43608 62.7301 6.23721C62.6165 6.03835 62.4418 5.88778 62.206 5.78551C61.973 5.6804 61.679 5.62784 61.3239 5.62784H60.0795V12.8466H58.2344ZM62.9474 8.875L65.1165 12.8466H63.0795L60.9574 8.875H62.9474Z" fill="#080707"/>
<path d="M50.8867 12.8466V4.11932H56.7674V5.64062H52.7319V7.72017H56.4648V9.24148H52.7319V11.3253H56.7844V12.8466H50.8867Z" fill="#080707"/>
<path d="M45.25 12.8466H42.1562V4.11932H45.2756C46.1534 4.11932 46.9091 4.29403 47.5426 4.64346C48.1761 4.99005 48.6634 5.48863 49.0043 6.1392C49.348 6.78977 49.5199 7.56818 49.5199 8.47443C49.5199 9.38352 49.348 10.1648 49.0043 10.8182C48.6634 11.4716 48.1733 11.973 47.5341 12.3224C46.8977 12.6719 46.1364 12.8466 45.25 12.8466ZM44.0014 11.2656H45.1733C45.7187 11.2656 46.1776 11.169 46.5497 10.9759C46.9247 10.7798 47.206 10.4773 47.3935 10.0682C47.5838 9.65625 47.679 9.125 47.679 8.47443C47.679 7.82954 47.5838 7.30255 47.3935 6.89346C47.206 6.48437 46.9261 6.18324 46.554 5.99005C46.1818 5.79687 45.723 5.70028 45.1776 5.70028H44.0014V11.2656Z" fill="#080707"/>
<path d="M35.3477 12.8466V4.11932H37.1928V11.3253H40.9343V12.8466H35.3477Z" fill="#080707"/>
<path d="M28 12.8466V4.11932H33.8807V5.64062H29.8452V7.72017H33.5781V9.24148H29.8452V11.3253H33.8977V12.8466H28Z" fill="#080707"/>
<path fill-rule="evenodd" clip-rule="evenodd" d="M20.7005 12.988L12.4493 16.497V3.314C13.5308 2.1715 16.1795 0.000750065 20.7005 0.000750065V12.988ZM1.445 2.64125H1.90325V13.7462L8.9445 16.7402H1.445C0.64975 16.7402 0 16.0897 0 15.2945V4.08625C0 3.291 0.6505 2.6405 1.445 2.6405V2.64125ZM21.8468 2.64125H22.305C23.1003 2.64125 23.75 3.29175 23.75 4.087V15.2952C23.75 16.0905 23.0995 16.741 22.305 16.741H14.8055L21.8468 13.7467V2.64125ZM11.3018 16.4962L3.05075 12.9875V0C7.5715 0 10.2203 2.17 11.3018 3.31325V16.4962Z" fill="url(#paint0_linear_18_2)"/>
<defs>
<linearGradient id="paint0_linear_18_2" x1="-1.249" y1="-4.7845" x2="21.7552" y2="20.4255" gradientUnits="userSpaceOnUse">
<stop stop-color="#080707"/>
<stop offset="1" stop-color="#080707"/>
</linearGradient>
</defs>
</svg>
