<svg width="80" height="23" viewBox="0 0 80 23" fill="none" xmlns="http://www.w3.org/2000/svg">
<path d="M26.6605 10V1.27273H32.7457V2.9858H28.7699V4.77557H32.4347V6.4929H28.7699V8.28693H32.7457V10H26.6605ZM34.0668 10V1.27273H36.1761V8.28693H39.8068V10H34.0668ZM44.1246 10H40.8988V1.27273H44.1204C45.0096 1.27273 45.7752 1.44744 46.4173 1.79688C47.0621 2.14347 47.5593 2.64347 47.9087 3.29688C48.2582 3.94744 48.4329 4.72585 48.4329 5.6321C48.4329 6.54119 48.2582 7.32244 47.9087 7.97585C47.5621 8.62926 47.0664 9.13068 46.4215 9.48011C45.7766 9.8267 45.011 10 44.1246 10ZM43.0082 8.2017H44.0437C44.5323 8.2017 44.9457 8.11932 45.2837 7.95455C45.6246 7.78693 45.8817 7.51562 46.055 7.14062C46.2312 6.76278 46.3192 6.25994 46.3192 5.6321C46.3192 5.00426 46.2312 4.50426 46.055 4.1321C45.8789 3.7571 45.619 3.48722 45.2752 3.32244C44.9343 3.15483 44.5138 3.07102 44.0138 3.07102H43.0082V8.2017ZM49.6644 10V1.27273H55.7496V2.9858H51.7738V4.77557H55.4386V6.4929H51.7738V8.28693H55.7496V10H49.6644ZM57.0707 10V1.27273H60.6758C61.3292 1.27273 61.8931 1.39062 62.3675 1.62642C62.8448 1.85937 63.2127 2.1946 63.4712 2.6321C63.7298 3.06676 63.859 3.58239 63.859 4.17898C63.859 4.78409 63.7269 5.2983 63.4627 5.72159C63.1985 6.14205 62.8235 6.46307 62.3377 6.68466C61.8519 6.90341 61.2766 7.01278 60.6119 7.01278H58.332V5.35085H60.2198C60.538 5.35085 60.8036 5.30966 61.0167 5.22727C61.2326 5.14205 61.396 5.0142 61.5067 4.84375C61.6175 4.67045 61.6729 4.44886 61.6729 4.17898C61.6729 3.90909 61.6175 3.68608 61.5067 3.50994C61.396 3.33097 61.2326 3.19744 61.0167 3.10938C60.8008 3.01847 60.5352 2.97301 60.2198 2.97301H59.18V10H57.0707ZM61.984 6.01136L64.1573 10H61.8562L59.7255 6.01136H61.984ZM65.016 10V1.27273H67.1254V8.28693H70.756V10H65.016ZM70.0657 1.27273H72.4222L74.2674 4.92472H74.3441L76.1893 1.27273H78.5458L75.354 7.08523V10H73.2575V7.08523L70.0657 1.27273ZM28.7528 22L26.2131 13.2727H28.544L29.8608 18.9915H29.9332L31.4375 13.2727H33.3381L34.8423 19.0043H34.9148L36.2358 13.2727H38.5625L36.027 22H33.9943L32.4219 16.7074H32.3537L30.7812 22H28.7528ZM41.5433 13.2727V22H39.4339V13.2727H41.5433ZM47.5849 15.8892C47.5565 15.5767 47.43 15.3338 47.2056 15.1605C46.984 14.9844 46.6673 14.8963 46.2553 14.8963C45.9826 14.8963 45.7553 14.9318 45.5735 15.0028C45.3917 15.0739 45.2553 15.1719 45.1644 15.2969C45.0735 15.419 45.0266 15.5597 45.0238 15.7188C45.0181 15.8494 45.0437 15.9645 45.1005 16.0639C45.1602 16.1634 45.2454 16.2514 45.3562 16.3281C45.4698 16.402 45.6062 16.4673 45.7653 16.5241C45.9244 16.581 46.1033 16.6307 46.3022 16.6733L47.0522 16.8438C47.484 16.9375 47.8647 17.0625 48.1942 17.2188C48.5266 17.375 48.805 17.5611 49.0295 17.777C49.2567 17.9929 49.4286 18.2415 49.5451 18.5227C49.6616 18.804 49.7212 19.1193 49.7241 19.4688C49.7212 20.0199 49.582 20.4929 49.3065 20.8878C49.0309 21.2827 48.6346 21.5852 48.1175 21.7955C47.6033 22.0057 46.9826 22.1108 46.2553 22.1108C45.5252 22.1108 44.8888 22.0014 44.3462 21.7827C43.8036 21.5639 43.3817 21.2315 43.0806 20.7855C42.7795 20.3395 42.6246 19.7756 42.6161 19.0938H44.636C44.6531 19.375 44.7283 19.6094 44.8619 19.7969C44.9954 19.9844 45.1786 20.1264 45.4116 20.223C45.6474 20.3196 45.9201 20.3679 46.2298 20.3679C46.5138 20.3679 46.7553 20.3295 46.9542 20.2528C47.1559 20.1761 47.3107 20.0696 47.4187 19.9332C47.5266 19.7969 47.582 19.6406 47.5849 19.4645C47.582 19.2997 47.5309 19.1591 47.4315 19.0426C47.332 18.9233 47.1786 18.821 46.9712 18.7358C46.7667 18.6477 46.5053 18.5668 46.1871 18.4929L45.2752 18.2798C44.5195 18.1065 43.9244 17.8267 43.4897 17.4403C43.055 17.0511 42.8391 16.5256 42.842 15.8636C42.8391 15.3239 42.984 14.8509 43.2766 14.4446C43.5692 14.0384 43.9741 13.7216 44.4911 13.4943C45.0082 13.267 45.5977 13.1534 46.2596 13.1534C46.9357 13.1534 47.5224 13.2685 48.0195 13.4986C48.5195 13.7259 48.9073 14.0455 49.1829 14.4574C49.4585 14.8693 49.5991 15.3466 49.6048 15.8892H47.5849ZM54.0153 22H50.7894V13.2727H54.011C54.9002 13.2727 55.6658 13.4474 56.3079 13.7969C56.9528 14.1435 57.4499 14.6435 57.7994 15.2969C58.1488 15.9474 58.3235 16.7259 58.3235 17.6321C58.3235 18.5412 58.1488 19.3224 57.7994 19.9759C57.4528 20.6293 56.957 21.1307 56.3121 21.4801C55.6673 21.8267 54.9016 22 54.0153 22ZM52.8988 20.2017H53.9343C54.4229 20.2017 54.8363 20.1193 55.1744 19.9545C55.5153 19.7869 55.7724 19.5156 55.9457 19.1406C56.1218 18.7628 56.2099 18.2599 56.2099 17.6321C56.2099 17.0043 56.1218 16.5043 55.9457 16.1321C55.7695 15.7571 55.5096 15.4872 55.1658 15.3224C54.8249 15.1548 54.4045 15.071 53.9045 15.071H52.8988V20.2017ZM67.7923 17.6364C67.7923 18.5966 67.6076 19.4105 67.2383 20.0781C66.869 20.7457 66.369 21.2528 65.7383 21.5994C65.1104 21.946 64.4059 22.1193 63.6246 22.1193C62.8406 22.1193 62.1346 21.9446 61.5067 21.5952C60.8789 21.2457 60.3803 20.7386 60.011 20.0739C59.6445 19.4062 59.4613 18.5937 59.4613 17.6364C59.4613 16.6761 59.6445 15.8622 60.011 15.1946C60.3803 14.527 60.8789 14.0199 61.5067 13.6733C62.1346 13.3267 62.8406 13.1534 63.6246 13.1534C64.4059 13.1534 65.1104 13.3267 65.7383 13.6733C66.369 14.0199 66.869 14.527 67.2383 15.1946C67.6076 15.8622 67.7923 16.6761 67.7923 17.6364ZM65.636 17.6364C65.636 17.0682 65.555 16.5881 65.3931 16.196C65.234 15.804 65.0039 15.5071 64.7028 15.3054C64.4045 15.1037 64.0451 15.0028 63.6246 15.0028C63.207 15.0028 62.8477 15.1037 62.5465 15.3054C62.2454 15.5071 62.0138 15.804 61.8519 16.196C61.6928 16.5881 61.6133 17.0682 61.6133 17.6364C61.6133 18.2045 61.6928 18.6847 61.8519 19.0767C62.0138 19.4687 62.2454 19.7656 62.5465 19.9673C62.8477 20.169 63.207 20.2699 63.6246 20.2699C64.0451 20.2699 64.4045 20.169 64.7028 19.9673C65.0039 19.7656 65.234 19.4687 65.3931 19.0767C65.555 18.6847 65.636 18.2045 65.636 17.6364ZM69.0238 13.2727H71.636L73.8519 18.6761H73.9542L76.1701 13.2727H78.7823V22H76.7283V16.6392H76.6559L74.5593 21.9446H73.2468L71.1502 16.6094H71.0778V22H69.0238V13.2727Z" fill="#080707"/>
<path d="M11.8511 17.2348L20.1566 11.7279L8.68603 9.76389L0.249985 14.9637L11.8511 17.2348Z" fill="#F4D177"/>
<path d="M11.6893 11.7677L3.38383 6.81964L14.8551 5.05452L23.2385 9.66483L11.6893 11.7677Z" fill="#FF6666"/>
<path d="M8.73572 7.49638L1.93558 3.44563L11.3275 2L18.2203 5.72114L8.73572 7.49638Z" fill="#02A9F4"/>
<path d="M12.4732 17.578C12.3583 17.407 12.2011 17.2877 12.0276 17.2571L0.379761 15.2931C0.379761 15.2931 0.878838 16.6508 0.861045 17.5543C0.847666 18.2862 0.386427 19.6711 0.386427 19.6711L12.0335 21.6351C12.207 21.6658 12.3642 21.5995 12.4784 21.4683C12.5926 21.3372 12.6638 21.1418 12.6631 20.9144L12.6594 18.1948C12.6594 17.9673 12.5881 17.7475 12.4732 17.578ZM23.1606 10.0227L11.5136 11.7872C11.3393 11.8152 11.1821 11.9219 11.0672 12.076C10.9466 12.2385 10.8816 12.4318 10.8811 12.63L10.8781 15.0747C10.8774 15.2798 10.9478 15.455 11.062 15.5715C11.1762 15.6901 11.3334 15.7494 11.507 15.7222L23.1547 13.957C23.1547 13.957 22.8203 13.177 22.7254 11.94C22.6631 11.13 23.1606 10.0227 23.1606 10.0227ZM8.58665 10.7344L18.1217 9.28807C18.1217 9.28807 17.7027 8.62525 17.6627 7.70432C17.6308 6.97528 18.1269 6.06685 18.1269 6.06685L8.59111 7.51244C8.44946 7.5348 8.3204 7.6227 8.22624 7.74827C8.13203 7.87315 8.0742 8.03363 8.0742 8.20173L8.07125 10.2027C8.07047 10.3694 8.12836 10.5139 8.22178 10.6102C8.31525 10.7065 8.44426 10.7546 8.58665 10.7344Z" fill="#FFF3E4"/>
<path d="M15.0022 15.1454L12.2723 16.9555C12.2149 16.9332 12.1553 16.9164 12.0943 16.9055L0.446485 14.9414C0.24405 14.9065 0.0430853 15.036 0.00598207 15.2299C-0.00284114 15.2761 -0.00189591 15.3235 0.0087637 15.3694C0.0194233 15.4152 0.0395881 15.4587 0.0681047 15.4972C0.0966213 15.5357 0.13293 15.5686 0.174954 15.5939C0.216978 15.6192 0.263893 15.6365 0.313015 15.6447L11.9571 17.6081C12.0053 17.6167 12.0809 17.6631 12.1528 17.7703C12.2337 17.8889 12.2797 18.0434 12.2797 18.1951L12.2834 20.9154C12.2841 21.0483 12.2471 21.1704 12.1847 21.2419C12.1402 21.2919 12.115 21.2852 12.1002 21.2834L0.453152 19.3194C0.251452 19.2842 0.0497519 19.414 0.0126487 19.608C0.00381923 19.6542 0.00475991 19.7016 0.0154169 19.7474C0.0260739 19.7933 0.0462381 19.8367 0.0747557 19.8752C0.103273 19.9138 0.139584 19.9466 0.181611 19.9719C0.223639 19.9972 0.270557 20.0145 0.319681 20.0227L11.963 21.986C12.0157 21.9955 12.0676 22 12.1187 22C12.3231 22 12.5164 21.9273 12.6748 21.7913L20.5956 16.4673C20.8225 16.3159 20.9738 16.0083 20.973 15.6294L20.9712 14.2879L15.0022 15.1454Z" fill="#FBAC0F"/>
<path d="M23.0947 13.6044L11.4447 15.3698C11.4172 15.3751 11.3839 15.3743 11.3409 15.3293C11.289 15.2756 11.2571 15.1811 11.2578 15.075L11.2607 12.63C11.2607 12.5079 11.303 12.3809 11.3779 12.2811C11.4372 12.202 11.5099 12.15 11.5737 12.1399L23.2207 10.3754C23.27 10.368 23.3172 10.3515 23.3597 10.3269C23.4022 10.3023 23.4391 10.2701 23.4683 10.232C23.4975 10.194 23.5185 10.1509 23.5299 10.1052C23.5414 10.0595 23.5432 10.0122 23.5352 9.96584C23.5018 9.77119 23.303 9.63618 23.1006 9.67001C23.1006 9.67001 13.7867 11.0953 11.2332 11.4958L9.67728 10.5689L8.20681 10.7888L7.62691 9.34745L3.38385 6.81963C3.01825 6.92076 2.5874 7.38265 2.57108 7.90311L2.56735 10.3667C2.56735 10.7064 2.71788 10.9827 2.94478 11.1188L10.9301 15.9364C10.927 15.9345 10.9248 15.9326 10.9218 15.9308C11.0694 16.0323 11.2427 16.086 11.4231 16.086C11.4706 16.086 11.5188 16.0824 11.567 16.0748L23.2148 14.3096C23.264 14.3022 23.3113 14.2857 23.3537 14.2611C23.3962 14.2365 23.4331 14.2043 23.4623 14.1662C23.4915 14.1282 23.5125 14.0851 23.524 14.0394C23.5354 13.9937 23.5372 13.9464 23.5292 13.9001C23.4966 13.7051 23.2956 13.5729 23.0947 13.6044Z" fill="#E63431"/>
<path d="M18.0617 8.93539L8.50216 10.3695C8.47692 10.3437 8.45099 10.2868 8.45099 10.2031L8.45393 8.20172C8.45393 8.11382 8.48363 8.0242 8.53628 7.95404C8.58078 7.89473 8.62749 7.86891 8.65122 7.86506L18.187 6.41947C18.2363 6.41205 18.2835 6.39556 18.326 6.37095C18.3684 6.34635 18.4053 6.3141 18.4345 6.27605C18.4637 6.23801 18.4847 6.19492 18.4962 6.14926C18.5076 6.10359 18.5094 6.05624 18.5015 6.00992C18.468 5.81492 18.2686 5.68199 18.0669 5.71409C18.0669 5.71409 8.36823 7.19804 8.29334 7.23278L1.93558 3.44563C1.63673 3.52795 1.28377 3.90614 1.27039 4.3317L1.24814 6.43906C1.24814 6.71885 1.37126 6.94486 1.55738 7.05651C1.55738 7.05651 8.0229 10.9762 8.29458 11.0631C8.444 11.1109 8.60524 11.093 8.64676 11.0871L18.1818 9.64073C18.2311 9.63331 18.2783 9.61683 18.3208 9.59222C18.3632 9.56761 18.4001 9.53536 18.4293 9.49732C18.4585 9.45928 18.4795 9.41619 18.491 9.37052C18.5025 9.32485 18.5043 9.2775 18.4963 9.23118C18.4628 9.03618 18.2641 8.9033 18.0617 8.93539Z" fill="#006AB3"/>
</svg>
